<?xml version="1.0" encoding="UTF-8" standalone="no"?>
<!-- Created with Inkscape (http://www.inkscape.org/) -->

<svg
   width="132.29166mm"
   height="14.420281mm"
   viewBox="0 0 132.29165 14.420282"
   version="1.1"
   id="svg1"
   inkscape:version="1.4 (86a8ad7, 2024-10-11)"
   sodipodi:docname="Dacia green 2021 wordmark.svg"
   xmlns:inkscape="http://www.inkscape.org/namespaces/inkscape"
   xmlns:sodipodi="http://sodipodi.sourceforge.net/DTD/sodipodi-0.dtd"
   xmlns="http://www.w3.org/2000/svg"
   xmlns:svg="http://www.w3.org/2000/svg">
  <sodipodi:namedview
     id="namedview1"
     pagecolor="#ffffff"
     bordercolor="#000000"
     borderopacity="0.25"
     inkscape:showpageshadow="2"
     inkscape:pageopacity="0.0"
     inkscape:pagecheckerboard="0"
     inkscape:deskcolor="#d1d1d1"
     inkscape:document-units="mm"
     inkscape:zoom="2.7901515"
     inkscape:cx="156.26392"
     inkscape:cy="50.714092"
     inkscape:window-width="1920"
     inkscape:window-height="1001"
     inkscape:window-x="-9"
     inkscape:window-y="-9"
     inkscape:window-maximized="1"
     inkscape:current-layer="layer1" />
  <defs
     id="defs1" />
  <g
     inkscape:label="Layer 1"
     inkscape:groupmode="layer"
     id="layer1"
     transform="translate(-47.625003,-57.745559)">
    <g
       id="g4-2"
       transform="matrix(0.09613521,0,0,0.09613521,47.625003,57.745559)"
       style="fill:#646b52;fill-opacity:1;stroke-width:2">
      <path
         fill="#646b52"
         d="m 517.2,150 h 76.3 L 449.5,3.4 C 447.2,1.1 445.4,0 443.4,0 c -2,0 -3.8,1.1 -6.1,3.4 L 293.5,150 h 75.7 L 443,74 Z m 782.6,0 h 76.3 L 1232.1,3.4 C 1229.8,1.1 1228,0 1226,0 c -2,0 -3.8,1.1 -6.1,3.4 L 1076.1,150 h 75.7 l 73.8,-76 z M 217.2,141.9 277.1,81.1 c 2.1,-2.3 3.3,-4.1 3.3,-6.1 0,-2 -1.1,-3.8 -3.3,-6.1 L 217.2,8.1 C 210.9,1.8 206.6,0 197.4,0 H 0 V 50.7 H 182.2 L 208,75 182.3,99.3 H 0 V 150 h 197.4 c 9.3,0 13.5,-1.8 19.8,-8.1 z M 676.3,8.1 616.4,68.9 c -2.1,2.3 -3.3,4.1 -3.3,6.1 0,2 1.1,3.8 3.3,6.1 l 59.9,60.8 c 6.3,6.3 10.6,8.1 19.8,8.1 H 893.5 V 99.3 H 711.2 L 685.5,75 711.2,50.7 H 893.4 V 0 H 696.1 c -9.3,0 -13.6,1.8 -19.8,8.1 z M 971.7,150 h 58.7 V 0 h -58.7 z"
         id="path2-8"
         style="fill:#646b52;fill-opacity:1;stroke-width:2" />
    </g>
  </g>
</svg>
